<svg xmlns="http://www.w3.org/2000/svg" viewBox="0 0 640 360">
  <defs><linearGradient id="g" x1="0" y1="0" x2="1" y2="1"><stop offset="0" stop-color="#1e2a5a"/><stop offset="1" stop-color="#4b5fc7"/></linearGradient>
  <pattern id="grid" width="32" height="32" patternUnits="userSpaceOnUse"><path d="M32 0H0V32" fill="none" stroke="#fff" stroke-opacity=".07"/></pattern></defs>
  <rect width="640" height="360" fill="url(#g)"/><rect width="640" height="360" fill="url(#grid)"/>
  <path d="M90 300 Q250 250 320 270 T560 230" fill="none" stroke="#a5b4fc" stroke-width="3" stroke-dasharray="10 10" stroke-opacity=".8"/>
  <g fill="none" stroke="#fff" stroke-width="7" stroke-linecap="round">
    <path d="M250 110 L390 200 M390 110 L250 200"/>
  </g>
  <rect x="290" y="130" width="60" height="50" rx="12" fill="#fff"/>
  <circle cx="320" cy="170" r="8" fill="#4b5fc7"/>
  <g fill="#fff" fill-opacity=".9">
    <ellipse cx="250" cy="106" rx="52" ry="8"/><ellipse cx="390" cy="106" rx="52" ry="8"/>
    <ellipse cx="250" cy="204" rx="52" ry="8"/><ellipse cx="390" cy="204" rx="52" ry="8"/>
  </g>
  <g fill="#fff"><circle cx="250" cy="110" r="9"/><circle cx="390" cy="110" r="9"/><circle cx="250" cy="200" r="9"/><circle cx="390" cy="200" r="9"/></g>
  <path d="M300 182 L280 240 M340 182 L360 240" stroke="#a5b4fc" stroke-width="2" stroke-dasharray="4 6"/>
</svg>
